<?xml version="1.0" encoding="UTF-8"?>
<svg width="60px" height="60px" viewBox="0 0 60 60" version="1.1" xmlns="http://www.w3.org/2000/svg" xmlns:xlink="http://www.w3.org/1999/xlink">
    <!-- Generator: Sketch 62 (91390) - https://sketch.com -->
    <title>cog</title>
    <desc>Created with Sketch.</desc>
    <defs>
        <path d="M37.0599708,1 L38.3370465,7.79268014 C39.7709036,8.32568204 41.1396667,8.99253993 42.4281501,9.77806801 L48.4900143,6.62507323 L57.2308757,17.4191382 L52.7096573,22.7399693 C53.1711643,24.1496346 53.5049562,25.6171242 53.6973563,27.1287614 L60,30.0035434 L56.8755724,43.5369262 L49.9886998,43.2541615 C49.1543743,44.5250768 48.201979,45.7115447 47.1471101,46.797969 L48.8626842,53.4400053 L36.3790044,59.5287027 L32.2222649,53.9408275 C31.4974512,54.0070993 30.7632664,54.0409658 30.0211715,54.0409658 C29.247613,54.0409658 28.4826494,54.0041666 27.7279359,53.9322234 L23.4941566,59.4461871 L11.0104769,53.3574897 L12.8297503,46.7302623 C11.779455,45.6400257 10.8318945,44.4501291 10.0026509,43.1761546 L3.1244276,43.3535183 L2.54374299e-12,29.8201356 L6.35686368,27.036871 C6.55509115,25.526271 6.89457488,24.0601406 7.3616177,22.652177 L2.92992569,17.2728543 L11.6707871,6.47878931 L17.6946778,9.72921767 C18.9857869,8.94905844 20.3567726,8.28775509 21.792474,7.7604685 L23.1706045,1 L37.0599708,1 Z M30,17 C22.8202983,17 17,22.8202983 17,30 C17,37.1797017 22.8202983,43 30,43 C37.1797017,43 43,37.1797017 43,30 C43,22.8202983 37.1797017,17 30,17 Z" id="path-1"></path>
    </defs>
    <g id="cog" stroke="none" stroke-width="1" fill="none" fill-rule="evenodd">
        <mask id="mask-2" fill="white">
            <use xlink:href="#path-1"></use>
        </mask>
        <use id="Combined-Shape" fill="#888888" xlink:href="#path-1"></use>
    </g>
</svg>